<svg width="67" height="67" viewBox="0 0 67 67" fill="none" xmlns="http://www.w3.org/2000/svg">
<path d="M33.5002 5.58337C18.0902 5.58337 5.5835 18.09 5.5835 33.5C5.5835 48.91 18.0902 61.4167 33.5002 61.4167C48.9102 61.4167 61.4168 48.91 61.4168 33.5C61.4168 18.09 48.9102 5.58337 33.5002 5.58337ZM33.5002 16.75C38.8881 16.75 43.271 21.133 43.271 26.5209C43.271 31.9088 38.8881 36.2917 33.5002 36.2917C28.1122 36.2917 23.7293 31.9088 23.7293 26.5209C23.7293 21.133 28.1122 16.75 33.5002 16.75ZM33.5002 55.8334C27.8331 55.8334 21.1331 53.5442 16.3593 47.7934C21.2498 43.9582 27.2852 41.874 33.5002 41.874C39.7151 41.874 45.7505 43.9582 50.641 47.7934C45.8672 53.5442 39.1672 55.8334 33.5002 55.8334Z" fill="black"/>
</svg>
